<svg width="512" height="512" viewBox="0 0 512 512" fill="none" xmlns="http://www.w3.org/2000/svg">
  <rect width="512" height="512" rx="100" fill="#1e293b"/>
  <path d="M256 96C176.471 96 112 160.471 112 240C112 319.529 176.471 384 256 384C335.529 384 400 319.529 400 240C400 160.471 335.529 96 256 96Z" fill="#3b82f6"/>
  <path d="M256 144C203.056 144 160 187.056 160 240C160 292.944 203.056 336 256 336C308.944 336 352 292.944 352 240C352 187.056 308.944 144 256 144Z" fill="#1e40af"/>
  <circle cx="256" cy="240" r="64" fill="#dbeafe"/>
  <path d="M192 416H320L336 448H176L192 416Z" fill="#64748b"/>
  <rect x="224" y="384" width="64" height="32" fill="#475569"/>
</svg>